{
  "accessors": [
    {
      "bufferView": 2,
      "componentType": 5126,
      "count": 802,
      "max": [
        0.011679194867610931,
        7.865484803915024e-06,
        0.011679195798933506
      ],
      "min": [
        -0.011679194867610931,
        -0.03509799763560295,
        -0.011679195798933506
      ],
      "type": "VEC3"
    },
    {
      "bufferView": 2,
      "byteOffset": 9624,
      "componentType": 5126,
      "count": 802,
      "max": [
        1.0,
        1.0,
        1.0
      ],
      "min": [
        -1.0,
        -1.0,
        -1.0
      ],
      "type": "VEC3"
    },
    {
      "bufferView": 3,
      "componentType": 5126,
      "count": 802,
      "max": [
        0.9967884421348572,
        0.9477055072784424,
        0.8191545009613037,
        1.0
      ],
      "min": [
        -0.9978383183479309,
        -1.0,
        -0.9961949586868286,
        1.0
      ],
      "type": "VEC4"
    },
    {
      "bufferView": 1,
      "componentType": 5126,
      "count": 802,
      "max": [
        0.955983579158783,
        0.987878143787384
      ],
      "min": [
        0.00040142625221051276,
        0.00040142625221051276
      ],
      "type": "VEC2"
    },
    {
      "bufferView": 1,
      "byteOffset": 6416,
      "componentType": 5126,
      "count": 802,
      "max": [
        0.955983579158783,
        0.987878143787384
      ],
      "min": [
        0.00040142625221051276,
        0.00040142625221051276
      ],
      "type": "VEC2"
    },
    {
      "bufferView": 1,
      "byteOffset": 12832,
      "componentType": 5126,
      "count": 802,
      "max": [
        0.955983579158783,
        0.987878143787384
      ],
      "min": [
        0.00040142625221051276,
        0.00040142625221051276
      ],
      "type": "VEC2"
    },
    {
      "bufferView": 1,
      "byteOffset": 19248,
      "componentType": 5126,
      "count": 802,
      "max": [
        0.955983579158783,
        0.987878143787384
      ],
      "min": [
        0.00040142625221051276,
        0.00040142625221051276
      ],
      "type": "VEC2"
    },
    {
      "bufferView": 0,
      "componentType": 5125,
      "count": 2376,
      "type": "SCALAR"
    },
    {
      "bufferView": 2,
      "byteOffset": 19248,
      "componentType": 5126,
      "count": 8759,
      "max": [
        0.02513286843895912,
        0.27992361783981323,
        0.13914290070533752
      ],
      "min": [
        -0.03325197100639343,
        -0.43054839968681335,
        -0.054239459335803986
      ],
      "type": "VEC3"
    },
    {
      "bufferView": 2,
      "byteOffset": 124356,
      "componentType": 5126,
      "count": 8759,
      "max": [
        1.0,
        1.0,
        1.0
      ],
      "min": [
        -1.0,
        -1.0,
        -1.0
      ],
      "type": "VEC3"
    },
    {
      "bufferView": 3,
      "byteOffset": 12832,
      "componentType": 5126,
      "count": 8759,
      "max": [
        1.0,
        1.0,
        1.0,
        1.0
      ],
      "min": [
        -1.0,
        -1.0,
        -1.0,
        -1.0
      ],
      "type": "VEC4"
    },
    {
      "bufferView": 1,
      "byteOffset": 25664,
      "componentType": 5126,
      "count": 8759,
      "max": [
        0.9981602430343628,
        0.9985702633857727
      ],
      "min": [
        0.0014297496527433395,
        0.001429736614227295
      ],
      "type": "VEC2"
    },
    {
      "bufferView": 1,
      "byteOffset": 95736,
      "componentType": 5126,
      "count": 8759,
      "max": [
        0.9981602430343628,
        0.9985702633857727
      ],
      "min": [
        0.0014297496527433395,
        0.001429736614227295
      ],
      "type": "VEC2"
    },
    {
      "bufferView": 1,
      "byteOffset": 165808,
      "componentType": 5126,
      "count": 8759,
      "max": [
        0.9981602430343628,
        0.9985702633857727
      ],
      "min": [
        0.0014297496527433395,
        0.001429736614227295
      ],
      "type": "VEC2"
    },
    {
      "bufferView": 1,
      "byteOffset": 235880,
      "componentType": 5126,
      "count": 8759,
      "max": [
        0.9981602430343628,
        0.9985702633857727
      ],
      "min": [
        0.0014297496527433395,
        0.001429736614227295
      ],
      "type": "VEC2"
    },
    {
      "bufferView": 0,
      "byteOffset": 9504,
      "componentType": 5125,
      "count": 24324,
      "type": "SCALAR"
    },
    {
      "bufferView": 2,
      "byteOffset": 229464,
      "componentType": 5126,
      "count": 332,
      "max": [
        0.1083647757768631,
        -0.17414136230945587,
        0.18016451597213745
      ],
      "min": [
        -0.14142544567584991,
        -0.2190164178609848,
        -0.09855949878692627
      ],
      "type": "VEC3"
    },
    {
      "bufferView": 2,
      "byteOffset": 233448,
      "componentType": 5126,
      "count": 332,
      "max": [
        1.0,
        1.0,
        1.0
      ],
      "min": [
        -1.0,
        -1.0,
        -0.9986549019813538
      ],
      "type": "VEC3"
    },
    {
      "bufferView": 3,
      "byteOffset": 152976,
      "componentType": 5126,
      "count": 332,
      "max": [
        1.0,
        1.0,
        0.9984973669052124,
        1.0
      ],
      "min": [
        -1.0,
        -1.0,
        -0.9200770258903503,
        1.0
      ],
      "type": "VEC4"
    },
    {
      "bufferView": 1,
      "byteOffset": 305952,
      "componentType": 5126,
      "count": 332,
      "max": [
        0.9934161305427551,
        0.9994537234306335
      ],
      "min": [
        0.0005463554407469928,
        0.0005463510751724243
      ],
      "type": "VEC2"
    },
    {
      "bufferView": 1,
      "byteOffset": 308608,
      "componentType": 5126,
      "count": 332,
      "max": [
        0.9934161305427551,
        0.9994537234306335
      ],
      "min": [
        0.0005463554407469928,
        0.0005463510751724243
      ],
      "type": "VEC2"
    },
    {
      "bufferView": 1,
      "byteOffset": 311264,
      "componentType": 5126,
      "count": 332,
      "max": [
        0.9934161305427551,
        0.9994537234306335
      ],
      "min": [
        0.0005463554407469928,
        0.0005463510751724243
      ],
      "type": "VEC2"
    },
    {
      "bufferView": 0,
      "byteOffset": 106800,
      "componentType": 5125,
      "count": 624,
      "type": "SCALAR"
    },
    {
      "bufferView": 2,
      "byteOffset": 237432,
      "componentType": 5126,
      "count": 802,
      "max": [
        0.04438905045390129,
        -0.17889241874217987,
        0.0740056186914444
      ],
      "min": [
        0.021030660718679428,
        -0.21399827301502228,
        0.050647225230932236
      ],
      "type": "VEC3"
    },
    {
      "bufferView": 2,
      "byteOffset": 247056,
      "componentType": 5126,
      "count": 802,
      "max": [
        1.0,
        1.0,
        1.0
      ],
      "min": [
        -1.0,
        -1.0,
        -1.0
      ],
      "type": "VEC3"
    },
    {
      "bufferView": 3,
      "byteOffset": 158288,
      "componentType": 5126,
      "count": 802,
      "max": [
        0.9967884421348572,
        0.947701632976532,
        0.8191549777984619,
        1.0
      ],
      "min": [
        -0.9978384971618652,
        -1.0,
        -0.9961950182914734,
        1.0
      ],
      "type": "VEC4"
    },
    {
      "bufferView": 1,
      "byteOffset": 313920,
      "componentType": 5126,
      "count": 802,
      "max": [
        0.955983579158783,
        0.987878143787384
      ],
      "min": [
        0.00040142625221051276,
        0.00040142625221051276
      ],
      "type": "VEC2"
    },
    {
      "bufferView": 1,
      "byteOffset": 320336,
      "componentType": 5126,
      "count": 802,
      "max": [
        0.955983579158783,
        0.987878143787384
      ],
      "min": [
        0.00040142625221051276,
        0.00040142625221051276
      ],
      "type": "VEC2"
    },
    {
      "bufferView": 1,
      "byteOffset": 326752,
      "componentType": 5126,
      "count": 802,
      "max": [
        0.955983579158783,
        0.987878143787384
      ],
      "min": [
        0.00040142625221051276,
        0.00040142625221051276
      ],
      "type": "VEC2"
    },
    {
      "bufferView": 1,
      "byteOffset": 333168,
      "componentType": 5126,
      "count": 802,
      "max": [
        0.955983579158783,
        0.987878143787384
      ],
      "min": [
        0.00040142625221051276,
        0.00040142625221051276
      ],
      "type": "VEC2"
    },
    {
      "bufferView": 0,
      "byteOffset": 109296,
      "componentType": 5125,
      "count": 2376,
      "type": "SCALAR"
    }
  ],
  "asset": {
    "extras": {
      "author": "Aperture Aerospace (https://sketchfab.com/Apeture_Aerospace)",
      "license": "CC-BY-NC-SA-4.0 (http://creativecommons.org/licenses/by-nc-sa/4.0/)",
      "source": "https://sketchfab.com/3d-models/half-life-2-ar2-osipr-eed1b7dc5e834545ad427eb42a7e1b2a",
      "title": "Half-Life 2 AR2 (OSIPR)"
    },
    "generator": "Sketchfab-16.25.0",
    "version": "2.0"
  },
  "bufferViews": [
    {
      "buffer": 0,
      "byteLength": 118800,
      "name": "floatBufferViews",
      "target": 34963
    },
    {
      "buffer": 0,
      "byteLength": 339584,
      "byteOffset": 118800,
      "byteStride": 8,
      "name": "floatBufferViews",
      "target": 34962
    },
    {
      "buffer": 0,
      "byteLength": 256680,
      "byteOffset": 458384,
      "byteStride": 12,
      "name": "floatBufferViews",
      "target": 34962
    },
    {
      "buffer": 0,
      "byteLength": 171120,
      "byteOffset": 715064,
      "byteStride": 16,
      "name": "floatBufferViews",
      "target": 34962
    }
  ],
  "buffers": [
    {
      "byteLength": 886184,
      "uri": "scene.bin"
    }
  ],
  "extensionsUsed": [
    "KHR_materials_emissive_strength"
  ],
  "images": [
    {
      "uri": "textures/18x35mm_Pulsed_Round_baseColor.png"
    },
    {
      "uri": "textures/18x35mm_Pulsed_Round_metallicRoughness.png"
    },
    {
      "uri": "textures/18x35mm_Pulsed_Round_emissive.png"
    },
    {
      "uri": "textures/18x35mm_Pulsed_Round_normal.png"
    },
    {
      "uri": "textures/material_baseColor.png"
    },
    {
      "uri": "textures/material_metallicRoughness.png"
    },
    {
      "uri": "textures/material_emissive.png"
    },
    {
      "uri": "textures/material_normal.png"
    },
    {
      "uri": "textures/Mag_AR2_baseColor.png"
    },
    {
      "uri": "textures/Mag_AR2_metallicRoughness.png"
    },
    {
      "uri": "textures/Mag_AR2_normal.png"
    }
  ],
  "materials": [
    {
      "emissiveFactor": [
        1.0,
        1.0,
        1.0
      ],
      "emissiveTexture": {
        "index": 2
      },
      "extensions": {
        "KHR_materials_emissive_strength": {
          "emissiveStrength": 10.0
        }
      },
      "name": "18x35mm_Pulsed_Round",
      "normalTexture": {
        "index": 3
      },
      "occlusionTexture": {
        "index": 1
      },
      "pbrMetallicRoughness": {
        "baseColorTexture": {
          "index": 0
        },
        "metallicRoughnessTexture": {
          "index": 1
        }
      }
    },
    {
      "emissiveFactor": [
        1.0,
        1.0,
        1.0
      ],
      "emissiveTexture": {
        "index": 6
      },
      "extensions": {
        "KHR_materials_emissive_strength": {
          "emissiveStrength": 10.0
        }
      },
      "name": "material",
      "normalTexture": {
        "index": 7
      },
      "occlusionTexture": {
        "index": 5
      },
      "pbrMetallicRoughness": {
        "baseColorTexture": {
          "index": 4
        },
        "metallicRoughnessTexture": {
          "index": 5
        }
      }
    },
    {
      "name": "Mag_AR2",
      "normalTexture": {
        "index": 10
      },
      "occlusionTexture": {
        "index": 9
      },
      "pbrMetallicRoughness": {
        "baseColorTexture": {
          "index": 8
        },
        "metallicRoughnessTexture": {
          "index": 9
        }
      }
    }
  ],
  "meshes": [
    {
      "name": "18x35mm_Pulsed_Round_18x35mm_Pulsed_Round_0",
      "primitives": [
        {
          "attributes": {
            "NORMAL": 1,
            "POSITION": 0,
            "TANGENT": 2,
            "TEXCOORD_0": 3,
            "TEXCOORD_1": 4,
            "TEXCOORD_2": 5,
            "TEXCOORD_3": 6
          },
          "indices": 7,
          "material": 0,
          "mode": 4
        }
      ]
    },
    {
      "name": "AR2_AR2_0",
      "primitives": [
        {
          "attributes": {
            "NORMAL": 9,
            "POSITION": 8,
            "TANGENT": 10,
            "TEXCOORD_0": 11,
            "TEXCOORD_1": 12,
            "TEXCOORD_2": 13,
            "TEXCOORD_3": 14
          },
          "indices": 15,
          "material": 1,
          "mode": 4
        }
      ]
    },
    {
      "name": "AR2_Mag_Mag_AR2_0",
      "primitives": [
        {
          "attributes": {
            "NORMAL": 17,
            "POSITION": 16,
            "TANGENT": 18,
            "TEXCOORD_0": 19,
            "TEXCOORD_1": 20,
            "TEXCOORD_2": 21
          },
          "indices": 22,
          "material": 2,
          "mode": 4
        }
      ]
    },
    {
      "name": "AR2_Mag_18x35mm_Pulsed_Round_0",
      "primitives": [
        {
          "attributes": {
            "NORMAL": 24,
            "POSITION": 23,
            "TANGENT": 25,
            "TEXCOORD_0": 26,
            "TEXCOORD_1": 27,
            "TEXCOORD_2": 28,
            "TEXCOORD_3": 29
          },
          "indices": 30,
          "material": 0,
          "mode": 4
        }
      ]
    }
  ],
  "nodes": [
    {
      "children": [
        1
      ],
      "matrix": [
        1.0,
        0.0,
        0.0,
        0.0,
        0.0,
        2.220446049250313e-16,
        -1.0,
        0.0,
        0.0,
        1.0,
        2.220446049250313e-16,
        0.0,
        0.0,
        0.0,
        0.0,
        1.0
      ],
      "name": "Sketchfab_model"
    },
    {
      "children": [
        2
      ],
      "matrix": [
        0.009999999776482582,
        0.0,
        0.0,
        0.0,
        0.0,
        0.0,
        0.009999999776482582,
        0.0,
        0.0,
        -0.009999999776482582,
        0.0,
        0.0,
        0.0,
        0.0,
        0.0,
        1.0
      ],
      "name": "f9c1c6a0c42b4fad8543783aa142a8f2.fbx"
    },
    {
      "children": [
        3,
        5,
        7
      ],
      "name": "RootNode"
    },
    {
      "children": [
        4
      ],
      "matrix": [
        -99.9999999999996,
        -8.742277980456488e-06,
        0.0,
        0.0,
        -1.4242978711041864e-12,
        1.6292067994694293e-05,
        99.99999999999865,
        0.0,
        -8.74227798045637e-06,
        99.99999999999828,
        -1.6292067983592062e-05,
        0.0,
        -1.7667478858883609e-15,
        7.900293827056885,
        -24.87112808227539,
        1.0
      ],
      "name": "18x35mm_Pulsed_Round"
    },
    {
      "mesh": 0,
      "name": "18x35mm_Pulsed_Round_18x35mm_Pulsed_Round_0"
    },
    {
      "children": [
        6
      ],
      "matrix": [
        -99.9999999999996,
        -8.742277980456488e-06,
        0.0,
        0.0,
        -1.4242978711041864e-12,
        1.6292067994694293e-05,
        99.99999999999865,
        0.0,
        -8.74227798045637e-06,
        99.99999999999828,
        -1.6292067983592062e-05,
        0.0,
        0.0,
        0.0,
        0.0,
        1.0
      ],
      "name": "AR2"
    },
    {
      "mesh": 1,
      "name": "AR2_AR2_0"
    },
    {
      "children": [
        8,
        9
      ],
      "matrix": [
        -99.9999999999996,
        -8.742277980456488e-06,
        0.0,
        0.0,
        -1.4242978711041864e-12,
        1.6292067994694293e-05,
        99.99999999999865,
        0.0,
        -8.74227798045637e-06,
        99.99999999999828,
        -1.6292067983592062e-05,
        0.0,
        0.0,
        0.0,
        0.0,
        1.0
      ],
      "name": "AR2_Mag"
    },
    {
      "mesh": 2,
      "name": "AR2_Mag_Mag_AR2_0"
    },
    {
      "mesh": 3,
      "name": "AR2_Mag_18x35mm_Pulsed_Round_0"
    }
  ],
  "samplers": [
    {
      "magFilter": 9729,
      "minFilter": 9987,
      "wrapS": 10497,
      "wrapT": 10497
    }
  ],
  "scene": 0,
  "scenes": [
    {
      "name": "Sketchfab_Scene",
      "nodes": [
        0
      ]
    }
  ],
  "textures": [
    {
      "sampler": 0,
      "source": 0
    },
    {
      "sampler": 0,
      "source": 1
    },
    {
      "sampler": 0,
      "source": 2
    },
    {
      "sampler": 0,
      "source": 3
    },
    {
      "sampler": 0,
      "source": 4
    },
    {
      "sampler": 0,
      "source": 5
    },
    {
      "sampler": 0,
      "source": 6
    },
    {
      "sampler": 0,
      "source": 7
    },
    {
      "sampler": 0,
      "source": 8
    },
    {
      "sampler": 0,
      "source": 9
    },
    {
      "sampler": 0,
      "source": 10
    }
  ]
}
